<svg xmlns="http://www.w3.org/2000/svg" width="16" height="16" fill="none"><g clip-path="url(#a)"><path fill="#000" d="M7.25 10.75v-2h-2A.75.75 0 0 1 4.5 8c0-.416.334-.75.75-.75h2v-2c0-.416.334-.75.75-.75s.75.334.75.75v2h2c.416 0 .75.334.75.75s-.334.75-.75.75h-2v2c0 .416-.334.75-.75.75a.75.75 0 0 1-.75-.75M16 8a8 8 0 0 1-8 8 8 8 0 0 1-8-8 8 8 0 0 1 8-8 8 8 0 0 1 8 8M8 1.5a6.5 6.5 0 1 0 0 13 6.5 6.5 0 0 0 0-13"/></g><defs><clipPath id="a"><path fill="#fff" d="M0 0h16v16H0z"/></clipPath></defs></svg>