<svg width="24" height="24" viewBox="0 0 24 24" fill="none" xmlns="http://www.w3.org/2000/svg"><path d="M0 12C0 8.8174 1.26428 5.76516 3.51472 3.51472C5.76516 1.26428 8.8174 0 12 0C15.1826 0 18.2348 1.26428 20.4853 3.51472C22.7357 5.76516 24 8.8174 24 12C24 15.1826 22.7357 18.2348 20.4853 20.4853C18.2348 22.7357 15.1826 24 12 24C8.8174 24 5.76516 22.7357 3.51472 20.4853C1.26428 18.2348 0 15.1826 0 12ZM8.82656 6.89531C8.47031 7.09219 8.25 7.47187 8.25 7.875V16.125C8.25 16.5328 8.47031 16.9078 8.82656 17.1047C9.18281 17.3016 9.61406 17.2969 9.96563 17.0812L16.7156 12.9562C17.0484 12.75 17.2547 12.3891 17.2547 11.9953C17.2547 11.6016 17.0484 11.2406 16.7156 11.0344L9.96563 6.90937C9.61875 6.69844 9.18281 6.68906 8.82656 6.88594V6.89531Z" fill="black"/></svg>