<svg width="109" height="120" viewBox="0 0 109 120" fill="black" xmlns="http://www.w3.org/2000/svg">
<path d="M103.021 84.0719C103.021 80.1254 109 80.1254 109 84.0719V116.999C109 118.656 107.661 120 106.01 120H29.4038C13.2261 120 0 106.725 0 90.4859V3.00004C0 1.343 1.33804 0 2.98897 0H79.5948C95.7738 0 109 13.2737 109 29.5127V47.5838C109 51.5303 103.021 51.5303 103.021 47.5838V29.5127C103.021 16.5878 92.472 6.00007 79.5948 6.00007H5.97793V90.4859C5.97793 103.411 16.5266 113.998 29.4038 113.998H103.021V84.0719ZM18.3837 31.0481C14.4517 31.0481 14.4517 25.0466 18.3837 25.0466H39.6063C43.5383 25.0466 43.5383 31.0481 39.6063 31.0481H18.3837ZM18.3837 94.9519C14.4517 94.9519 14.4517 88.9504 18.3837 88.9504H48.5992C52.5311 88.9504 52.5311 94.9519 48.5992 94.9519H18.3837ZM18.3837 47.0252C14.4517 47.0252 14.4517 41.0236 18.3837 41.0236H39.6063C43.5383 41.0236 43.5383 47.0252 39.6063 47.0252H18.3837ZM18.3837 63.0008C14.4517 63.0008 14.4517 56.9992 18.3837 56.9992H48.5992C52.5311 56.9992 52.5311 63.0008 48.5992 63.0008H18.3837ZM18.3837 78.9749C14.4517 78.9749 14.4517 72.9748 18.3837 72.9748H48.5992C52.5311 72.9748 52.5311 78.9749 48.5992 78.9749H18.3837ZM93.6327 67.817C93.9081 60.8111 88.4737 54.8979 81.4836 54.6215C74.5007 54.3465 68.6122 59.8126 68.3382 66.8156C68.0527 74.0718 73.9312 80.1037 81.1505 80.0198C87.7687 79.9358 93.3645 74.655 93.6327 67.817ZM84.7696 85.6161V101.171C84.7696 105.117 78.7902 105.117 78.7902 101.171V85.8722C69.163 84.7304 61.9998 76.3439 62.3819 66.5811C62.7871 56.2727 71.444 48.2394 81.7172 48.6446C91.989 49.0498 99.9927 57.7359 99.589 68.0515C99.2516 76.6521 93.0848 83.8954 84.7696 85.6161Z"/></svg>