<svg xmlns="http://www.w3.org/2000/svg" width="120" height="150" fill="none"><path fill="#000" d="M105 150H15a15 15 0 0 1-15-15V80a15 15 0 0 1 15-15h90a15 15 0 0 1 15 15v55a15 15 0 0 1-15 15M15 75a5 5 0 0 0-5 5v55a5 5 0 0 0 5 5h90a5 5 0 0 0 3.536-1.464A5 5 0 0 0 110 135V80a5 5 0 0 0-5-5z"/><path fill="#000" d="M100 75H20a5 5 0 0 1-5-5V40A40 40 0 0 1 55 0h10a40 40 0 0 1 40 40v30a5 5 0 0 1-5 5M25 65h70V40a30 30 0 0 0-30-30H55a30 30 0 0 0-30 30zm35 45a9.998 9.998 0 0 1-7.071-17.071A10 10 0 1 1 60 110"/><path fill="#000" d="M65 105H55v20h10z"/></svg>